<svg xmlns="http://www.w3.org/2000/svg" xmlns:xlink="http://www.w3.org/1999/xlink" width="17" height="15" viewBox="0 0 17 15"><defs><path id="3jkoa" d="M641.9 415.02c-.08 1.82-.3 3.64-.66 5.44a.67.67 0 0 1-.65.54c-.2 0-.4-.1-.53-.27a9.15 9.15 0 0 0-7.15-3.57h-1.25c0 .76.3 1.58.82 2.11.13.14.14.35.02.5l-.68 1.1a.37.37 0 0 1-.27.13c-.1 0-.2-.03-.28-.1a5.02 5.02 0 0 1-1.55-3.65 3.73 3.73 0 0 1-3.72-3.75 3.66 3.66 0 0 1 3.72-3.66h3.19c2.65 0 5.49-1.33 7.15-3.57a.66.66 0 0 1 1.18.27c.36 1.8.58 3.62.66 5.44a1.6 1.6 0 0 1 0 3.04zm-10.01.86v-4.8h-2.52c-1.27 0-2.21 1.14-2.21 2.42s.94 2.38 2.2 2.38zm8.25-7.59a10.72 10.72 0 0 1-6.75 2.86v4.7c2.64.13 4.84 1.17 6.75 2.86a36 36 0 0 0 0-10.42z"/></defs><g><g transform="translate(-626 -406)"><use fill="#7c8588" xlink:href="#3jkoa"/></g></g></svg>