<?xml version="1.0" encoding="utf-8"?>
<!-- Generator: Adobe Illustrator 22.1.0, SVG Export Plug-In . SVG Version: 6.00 Build 0)  -->
<svg version="1.1" id="Layer_1" xmlns="http://www.w3.org/2000/svg" xmlns:xlink="http://www.w3.org/1999/xlink" x="0px" y="0px"
	 viewBox="0 0 17 15" style="enable-background:new 0 0 17 15;" xml:space="preserve">
<g>
	<g transform="translate(-626 -406)">
		<g>
			<path id="_x33_jkoa" d="M641.9,415c-0.1,1.8-0.3,3.6-0.7,5.4c-0.1,0.3-0.3,0.5-0.7,0.5c-0.2,0-0.4-0.1-0.5-0.3
				c-1.7-2.2-4.3-3.5-7.2-3.6h-1.3c0,0.8,0.3,1.6,0.8,2.1c0.1,0.1,0.1,0.4,0,0.5l-0.7,1.1c-0.1,0.1-0.2,0.1-0.3,0.1
				c-0.1,0-0.2,0-0.3-0.1c-1-1-1.6-2.3-1.5-3.6c-2.1,0-3.7-1.7-3.7-3.7c0,0,0,0,0,0c0-2,1.6-3.7,3.7-3.7c0,0,0,0,0.1,0h3.2
				c2.7,0,5.5-1.3,7.2-3.6c0.2-0.3,0.6-0.4,0.9-0.1c0.1,0.1,0.2,0.2,0.3,0.4c0.4,1.8,0.6,3.6,0.7,5.4c0.8,0.3,1.3,1.2,1,2
				C642.8,414.5,642.4,414.9,641.9,415L641.9,415z M631.9,415.9v-4.8h-2.5c-1.3,0-2.2,1.1-2.2,2.4s0.9,2.4,2.2,2.4L631.9,415.9z
				 M640.1,408.3c-1.8,1.7-4.2,2.7-6.8,2.9v4.7c2.6,0.1,4.8,1.2,6.8,2.9C640.6,415.3,640.6,411.7,640.1,408.3L640.1,408.3z"/>
		</g>
	</g>
</g>
</svg>
