<svg xmlns="http://www.w3.org/2000/svg" xmlns:xlink="http://www.w3.org/1999/xlink" width="17" height="19" viewBox="0 0 17 19"><defs><path id="yj23a" d="M1351 35.44c0 .98-.82 1.56-1.82 1.56h-4.86a1.8 1.8 0 0 1-1.82 1.78 1.8 1.8 0 0 1-1.82-1.78h-4.86c-1 0-1.82-.58-1.82-1.56 0-.85.38-1.65 1.03-2.2 1.17-1 2.01-3.62 2.01-6.7a5.34 5.34 0 0 1 3.67-5.05 1.8 1.8 0 0 1 1.79-1.49c.9 0 1.65.64 1.79 1.49a5.34 5.34 0 0 1 3.67 5.04c0 3.09.84 5.72 2.01 6.7a2.9 2.9 0 0 1 1.03 2.2zm-1.57-.1c0-.35-.15-.67-.41-.9-1.69-1.42-2.74-4.29-2.74-8.01 0-2.04-1.69-3.7-3.78-3.7a3.75 3.75 0 0 0-3.78 3.7c0 3.72-1.05 6.6-2.74 8.02-.26.22-.41.54-.41.88z"/></defs><g><g transform="translate(-1334 -20)"><use fill="#a56ea3" xlink:href="#yj23a"/><use fill="#e0e0e0" xlink:href="#yj23a"/></g></g></svg>