<?xml version="1.0" encoding="utf-8"?>
<!-- Generator: Adobe Illustrator 22.1.0, SVG Export Plug-In . SVG Version: 6.00 Build 0)  -->
<svg version="1.1" id="Layer_1" xmlns="http://www.w3.org/2000/svg" xmlns:xlink="http://www.w3.org/1999/xlink" x="0px" y="0px"
	 viewBox="0 0 13 14" style="enable-background:new 0 0 13 14;" xml:space="preserve">
<g>
	<g transform="translate(-1329 -406)">
		<g>
			<path id="io1ja" d="M1335.5,415.3L1335.5,415.3c-0.6,0-1.1-0.2-1.5-0.7c-0.4-0.4-0.6-1-0.6-1.6c0-1.3,1-2.3,2.2-2.3
				c0.6,0,1.1,0.2,1.5,0.7c0.4,0.4,0.6,1,0.6,1.6C1337.7,414.3,1336.7,415.3,1335.5,415.3z M1335.5,411.8c-0.6,0-1.1,0.5-1.1,1.2
				c0,0.3,0.1,0.6,0.3,0.8c0.2,0.2,0.5,0.4,0.8,0.4c0.6,0,1.1-0.5,1.1-1.2c0-0.3-0.1-0.6-0.3-0.8
				C1336.1,411.9,1335.8,411.8,1335.5,411.8z M1336.6,420h-2c-0.2,0-0.4-0.2-0.5-0.4l-0.4-1.6c-0.5-0.2-0.9-0.4-1.3-0.8l-1.5,0.4
				c-0.2,0.1-0.5,0-0.6-0.3l-1-1.8c-0.1-0.2-0.1-0.5,0.1-0.7l1-1.1c-0.1-0.5-0.1-1,0-1.6l-1.2-1.3c-0.2-0.2-0.2-0.4-0.1-0.6l1-1.8
				c0.1-0.2,0.4-0.3,0.6-0.3l1.7,0.5c0.4-0.3,0.9-0.6,1.4-0.8l0.4-1.6c0.1-0.2,0.3-0.4,0.5-0.4l2,0c0.2,0,0.4,0.2,0.5,0.4l0.5,1.8
				c0.3,0.2,0.7,0.4,1,0.6l1.8-0.5c0.2-0.1,0.5,0,0.6,0.3l1,1.8c0.1,0.2,0.1,0.5-0.1,0.6l-1.4,1.5c0,0.2,0,0.3,0,0.5
				c0,0.2,0,0.5-0.1,0.7l1.2,1.3c0.2,0.2,0.2,0.4,0.1,0.6l-1,1.8c-0.1,0.2-0.4,0.3-0.6,0.2l-1.7-0.5c-0.3,0.2-0.6,0.4-0.9,0.6
				l-0.5,1.8C1337,419.8,1336.8,420,1336.6,420L1336.6,420z M1335,418.9h1.2l0.4-1.7c0.1-0.2,0.2-0.3,0.3-0.4
				c0.4-0.2,0.8-0.4,1.1-0.7c0.1-0.1,0.3-0.1,0.5-0.1l1.5,0.4l0.6-1.1l-1.1-1.2c-0.1-0.1-0.2-0.3-0.2-0.5c0.1-0.5,0.1-0.9,0-1.4
				c0-0.2,0-0.3,0.2-0.5l1.3-1.3l-0.6-1.1l-1.7,0.5c-0.2,0-0.3,0-0.5-0.1c-0.3-0.3-0.7-0.6-1.1-0.7c-0.2-0.1-0.3-0.2-0.3-0.4
				l-0.4-1.7h-1.2l-0.4,1.5c0,0.2-0.2,0.3-0.3,0.4c-0.6,0.2-1.1,0.5-1.5,0.8c-0.1,0.1-0.3,0.2-0.5,0.1l-1.5-0.4l-0.6,1.1l1.1,1.2
				c0.1,0.1,0.2,0.3,0.1,0.5c-0.1,0.6-0.1,1.1,0,1.7c0,0.2,0,0.4-0.2,0.5l-0.9,1l0.6,1.1l1.4-0.4c0.2,0,0.3,0,0.5,0.1
				c0.4,0.4,0.9,0.7,1.5,0.8c0.2,0,0.3,0.2,0.3,0.4L1335,418.9z"/>
		</g>
	</g>
</g>
</svg>
