<svg xmlns="http://www.w3.org/2000/svg" xmlns:xlink="http://www.w3.org/1999/xlink" width="13" height="14" viewBox="0 0 13 14"><defs><path id="io1ja" d="M1335.49 415.26h-.01c-.58 0-1.12-.24-1.53-.66-.41-.43-.64-1-.63-1.6 0-1.25.97-2.26 2.17-2.26.59 0 1.13.24 1.54.67.41.43.64 1 .63 1.6 0 1.24-.98 2.25-2.17 2.25zm0-3.44c-.63 0-1.14.53-1.14 1.18 0 .32.12.61.33.84.22.22.5.35.81.35.63 0 1.14-.53 1.14-1.18 0-.32-.12-.62-.33-.84-.22-.23-.5-.35-.81-.35zm1.08 8.18h-2a.52.52 0 0 1-.49-.4l-.42-1.64a5.02 5.02 0 0 1-1.33-.75l-1.5.42a.52.52 0 0 1-.59-.25l-.99-1.8a.55.55 0 0 1 .09-.66l1.04-1.06a5.24 5.24 0 0 1-.02-1.57l-1.21-1.27a.54.54 0 0 1-.08-.65l1-1.79a.52.52 0 0 1 .59-.25l1.65.48c.43-.34.89-.6 1.39-.78l.45-1.64c.06-.23.27-.39.5-.39l1.96.01a.5.5 0 0 1 .49.4l.47 1.83c.34.17.67.39.97.64l1.81-.5c.23-.06.47.04.59.25l.99 1.8c.11.22.08.48-.09.65l-1.41 1.45c.02.17.03.33.03.5-.01.22-.02.45-.05.68l1.21 1.27c.16.17.19.44.08.65l-1.01 1.8a.5.5 0 0 1-.58.24l-1.66-.47c-.28.22-.59.42-.91.57l-.47 1.83a.52.52 0 0 1-.5.4zm-1.59-1.08h1.19l.43-1.67c.05-.16.16-.3.31-.36.39-.17.76-.4 1.09-.7a.5.5 0 0 1 .47-.1l1.53.44.6-1.08-1.11-1.17a.57.57 0 0 1-.15-.48 4.24 4.24 0 0 0 .03-1.4.59.59 0 0 1 .15-.45l1.31-1.34-.59-1.08-1.7.46a.5.5 0 0 1-.47-.12 4.08 4.08 0 0 0-1.14-.74.52.52 0 0 1-.3-.36l-.42-1.68h-1.17l-.43 1.52a.52.52 0 0 1-.35.36c-.55.17-1.05.45-1.49.84a.51.51 0 0 1-.48.11l-1.52-.44-.61 1.08 1.12 1.17c.12.12.17.3.14.48a4.18 4.18 0 0 0 .03 1.71.55.55 0 0 1-.15.5l-.95.98.59 1.08 1.38-.38a.5.5 0 0 1 .46.11 4 4 0 0 0 1.46.82c.17.05.3.2.35.38z"/></defs><g><g transform="translate(-1329 -406)"><use fill="#7c8588" xlink:href="#io1ja"/></g></g></svg>