<?xml version="1.0" encoding="utf-8"?>
<!-- Generator: Adobe Illustrator 22.1.0, SVG Export Plug-In . SVG Version: 6.00 Build 0)  -->
<svg version="1.1" id="Layer_1" xmlns="http://www.w3.org/2000/svg" xmlns:xlink="http://www.w3.org/1999/xlink" x="0px" y="0px"
	 viewBox="0 0 15 16" style="enable-background:new 0 0 15 16;" xml:space="preserve">
<g>
	<g transform="translate(-261 -407)">
		<g>
			<path id="_x38_yv2a" d="M267.1,413h-5.2c-0.5,0-0.9-0.5-0.9-1v-4c0-0.5,0.4-1,0.9-1h5.2c0.5,0,0.9,0.5,0.9,1v4
				C268,412.5,267.6,413,267.1,413z M266.9,408.1h-4.8v3.8h4.8V408.1z M267.1,423h-5.2c-0.5,0-0.9-0.5-0.9-1v-7c0-0.5,0.4-1,0.9-1
				h5.2c0.5,0,0.9,0.5,0.9,1v7C268,422.5,267.6,423,267.1,423z M266.9,415.2h-4.7v6.6h4.7V415.2z M275.1,416h-5.2
				c-0.5,0-0.9-0.5-0.9-1v-7c0-0.5,0.4-1,0.9-1h5.2c0.5,0,0.9,0.5,0.9,1v7C276,415.5,275.6,416,275.1,416z M274.9,408.2h-4.8v6.7
				h4.8V408.2z M275.1,423h-5.2c-0.5,0-0.9-0.5-0.9-1v-4c0-0.5,0.4-1,0.9-1h5.2c0.5,0,0.9,0.5,0.9,1v4
				C276,422.5,275.6,423,275.1,423z M274.8,418.1h-4.7v3.7h4.7L274.8,418.1z"/>
		</g>
	</g>
</g>
</svg>
