<svg xmlns="http://www.w3.org/2000/svg" xmlns:xlink="http://www.w3.org/1999/xlink" width="15" height="16" viewBox="0 0 15 16"><defs><path id="8yv2a" d="M267.11 413h-5.22c-.5 0-.89-.45-.89-1v-4c0-.55.4-1 .89-1h5.22c.5 0 .89.45.89 1v4c0 .55-.4 1-.89 1zm-.23-4.9h-4.76v3.8h4.76zm.23 14.9h-5.22c-.5 0-.89-.45-.89-1v-7c0-.55.4-1 .89-1h5.22c.5 0 .89.45.89 1v7c0 .55-.4 1-.89 1zm-.23-7.82h-4.72v6.64h4.72zm8.23.82h-5.22c-.5 0-.89-.45-.89-1v-7c0-.55.4-1 .89-1h5.22c.5 0 .89.45.89 1v7c0 .55-.4 1-.89 1zm-.23-7.82h-4.76v6.68h4.76zm.23 14.82h-5.22c-.5 0-.89-.45-.89-1v-4c0-.55.4-1 .89-1h5.22c.5 0 .89.45.89 1v4c0 .55-.4 1-.89 1zm-.26-4.86h-4.73v3.72h4.72z"/></defs><g><g transform="translate(-261 -407)"><use fill="#7b8487" xlink:href="#8yv2a"/></g></g></svg>