<svg xmlns="http://www.w3.org/2000/svg" xmlns:xlink="http://www.w3.org/1999/xlink" width="20" height="15" viewBox="0 0 20 15"><defs><path id="av77a" d="M533.27 420h-2.31c-.03-.46-.08-.88-.15-1.25h1.76c0-1.38-.95-2.57-2.31-3.13-.26.23-.54.4-.85.52a8.38 8.38 0 0 0-2.1-1.24c.08-.11.12-.24.18-.36.3.24.65.39 1.01.39 1.11 0 2.05-1.29 2.05-2.8 0-1.52-.94-2.8-2.05-2.8-.24 0-.46.06-.68.17-.13-.42-.3-.82-.53-1.2.38-.2.78-.3 1.21-.3 1.82 0 3.3 1.85 3.3 4.13a4.8 4.8 0 0 1-.66 2.47 4.82 4.82 0 0 1 2.86 4.28v.37c0 .41-.33.75-.73.75zm-5.27-.4v.46c0 .52-.42.94-.93.94h-12.14a.94.94 0 0 1-.93-.94v-.47c0-2.3 1.48-4.3 3.65-5.34a5.92 5.92 0 0 1-.85-3.1c0-2.84 1.88-5.15 4.2-5.15 2.32 0 4.2 2.3 4.2 5.16 0 1.16-.32 2.23-.84 3.09 2.17 1.03 3.64 3.04 3.64 5.34zm-9.8-8.44c0 2.03 1.28 3.75 2.8 3.75 1.52 0 2.8-1.72 2.8-3.75 0-2.04-1.28-3.75-2.8-3.75-1.52 0-2.8 1.71-2.8 3.75zm8.4 8.43c0-1.86-1.3-3.46-3.18-4.22-.69.6-1.52.94-2.42.94-.9 0-1.73-.35-2.42-.94-1.88.75-3.18 2.36-3.18 4.22z"/></defs><g><g transform="translate(-514 -406)"><use fill="#13191b" xlink:href="#av77a"/></g></g></svg>