<?xml version="1.0" encoding="utf-8"?>
<!-- Generator: Adobe Illustrator 22.1.0, SVG Export Plug-In . SVG Version: 6.00 Build 0)  -->
<svg version="1.1" id="Layer_1" xmlns="http://www.w3.org/2000/svg" xmlns:xlink="http://www.w3.org/1999/xlink" x="0px" y="0px"
	 viewBox="0 0 20 15" style="enable-background:new 0 0 20 15;" xml:space="preserve">
<style type="text/css">
	.st0{fill:#7B8487;}
</style>
<g>
	<g transform="translate(-514 -406)">
		<g>
			<path id="av77a" class="st0" d="M533.3,420H531c0-0.5-0.1-0.9-0.2-1.3h1.8c0-1.4-1-2.6-2.3-3.1c-0.3,0.2-0.5,0.4-0.8,0.5
				c-0.6-0.5-1.3-0.9-2.1-1.2c0.1-0.1,0.1-0.2,0.2-0.4c0.3,0.2,0.7,0.4,1,0.4c1.1,0,2-1.3,2-2.8c0-1.5-0.9-2.8-2-2.8
				c-0.2,0-0.5,0.1-0.7,0.2c-0.1-0.4-0.3-0.8-0.5-1.2c0.4-0.2,0.8-0.3,1.2-0.3c1.8,0,3.3,1.9,3.3,4.1c0,0.9-0.2,1.7-0.7,2.5
				c1.7,0.8,2.8,2.4,2.9,4.3v0.4C534,419.7,533.7,420,533.3,420L533.3,420z M528,419.6v0.5c0,0.5-0.4,0.9-0.9,0.9h-12.1
				c-0.5,0-0.9-0.4-0.9-0.9v-0.5c0-2.3,1.5-4.3,3.7-5.3c-0.6-0.9-0.9-2-0.8-3.1c0-2.8,1.9-5.1,4.2-5.1s4.2,2.3,4.2,5.2
				c0,1.2-0.3,2.2-0.8,3.1C526.5,415.3,528,417.3,528,419.6L528,419.6z M518.2,411.2c0,2,1.3,3.8,2.8,3.8c1.5,0,2.8-1.7,2.8-3.8
				c0-2-1.3-3.8-2.8-3.8C519.5,407.4,518.2,409.1,518.2,411.2z M526.6,419.6c0-1.9-1.3-3.5-3.2-4.2c-0.7,0.6-1.5,0.9-2.4,0.9
				c-0.9,0-1.7-0.4-2.4-0.9c-1.9,0.8-3.2,2.4-3.2,4.2H526.6z"/>
		</g>
	</g>
</g>
</svg>
