<svg xmlns="http://www.w3.org/2000/svg" xmlns:xlink="http://www.w3.org/1999/xlink" width="12" height="11" viewBox="0 0 12 11"><defs><path id="8gfaa" d="M397 307.83c-.41.19-.85.32-1.31.38.47-.3.83-.77 1-1.32-.44.27-.93.47-1.45.58a2.24 2.24 0 0 0-1.67-.76 2.33 2.33 0 0 0-2.28 2.38c0 .2.02.37.05.55a6.4 6.4 0 0 1-4.7-2.49 2.44 2.44 0 0 0 .7 3.18 2.2 2.2 0 0 1-1.03-.3v.03c0 1.15.78 2.12 1.83 2.33a2.18 2.18 0 0 1-1.03.05 2.3 2.3 0 0 0 2.13 1.65 4.48 4.48 0 0 1-3.38.98 6.28 6.28 0 0 0 3.5 1.07c4.2 0 6.5-3.62 6.5-6.77v-.3c.45-.34.83-.76 1.14-1.24z"/></defs><g><g transform="translate(-385 -306)"><use fill="#d9dce2" xlink:href="#8gfaa"/></g></g></svg>